# xmcd
#
# Track frame offsets:
#	150
#	19683
#	33531
#	54145
#	75973
#	96973
#	115415
#	132592
#	152717
#	167990
#	183007
#	200163
#	218748
#	239486
#
# Disc length: 3397 seconds
# Revision: 0
# Processed by: cddbd v1.5.2PL0 Copyright (c) Steve Scherf et al.
# Submitted via: dBpowerAMP V12.0
#
DISCID=ba0d430e
DTITLE=Courtyard Hounds - Courtyard Hounds
DYEAR=2010
DGENRE=Country
TTITLE0=Skyline
TTITLE1=The Coast
TTITLE2=Delight
TTITLE3=See you in the spring
TTITLE4=Aint no son
TTITLE5=Fairytale
TTITLE6=I miss you
TTITLE7=Gracefully
TTITLE8=April's Love
TTITLE9=Then Again
TTITLE10=It didn't make a sound
TTITLE11=Fear of wasted time
TTITLE12=Well Behaved
TTITLE13=Straw Cage
EXTD=
EXTT0=
EXTT1=
EXTT2=
EXTT3=
EXTT4=
EXTT5=
EXTT6=
EXTT7=
EXTT8=
EXTT9=
EXTT10=
EXTT11=
EXTT12=
EXTT13=
PLAYORDER=
